<svg width="234.67" height="234.67" version="1.1" viewBox="0 0 234.67 234.67" xml:space="preserve" xmlns="http://www.w3.org/2000/svg"><defs><clipPath id="clipPath18"><path d="m0 192h192v-192h-192z"/></clipPath></defs><g transform="matrix(1.3333 0 0 -1.3333 -10.667 210.67)"><g transform="matrix(1 0 0 1 0 -26)"><g clip-path="url(#clipPath18)"><g transform="translate(78 69.831)"><path d="m0 0v52.338l46-26.17zm102.32 68.806c-2.024 7.622-7.988 13.624-15.56 15.661-13.725 3.702-68.762 3.702-68.762 3.702s-55.037 0-68.762-3.702c-7.572-2.037-13.536-8.039-15.56-15.661-3.678-13.814-3.678-42.637-3.678-42.637s0-28.822 3.678-42.637c2.024-7.622 7.988-13.624 15.56-15.662 13.725-3.701 68.762-3.701 68.762-3.701s55.037 0 68.762 3.701c7.572 2.038 13.536 8.04 15.56 15.662 3.678 13.815 3.678 42.637 3.678 42.637s0 28.823-3.678 42.637" fill="#fff"/></g></g></g></g></svg>
