<svg xmlns="http://www.w3.org/2000/svg" viewBox="0 0 23.91 24"><defs><style>.cls-1{fill:#fff;}</style></defs><title>stupidfag</title><g id="Layer_1" data-name="Layer 1"><path class="cls-1" d="M24,12A12,12,0,0,1,.26,14.46l4.76,2a3.15,3.15,0,0,0,6.23-.6h0l3.6-2.69a4.09,4.09,0,1,0-4-4.16L8.18,12.71a3.05,3.05,0,0,0-1.79.51L.09,10.57A12,12,0,0,1,24,12ZM7.42,17.48l-1.54-.65a2.43,2.43,0,1,0,2.23-3.41,2.38,2.38,0,0,0-.86.16l1.54.65a1.76,1.76,0,0,1-1.37,3.25Zm7.49-5.6a2.79,2.79,0,1,1,2.78-2.79A2.78,2.78,0,0,1,14.91,11.88Zm0-.69a2.1,2.1,0,1,0-2.11-2.1A2.1,2.1,0,0,0,14.91,11.19Z" transform="translate(-0.09 0)"/></g></svg>